<?xml version="1.0" encoding="UTF-8"?>
<svg id="Layer_1" data-name="Layer 1" xmlns="http://www.w3.org/2000/svg" xmlns:xlink="http://www.w3.org/1999/xlink" viewBox="0 0 2663 2026">
  <defs>
    <style>
      .cls-1 {
        letter-spacing: -.04em;
      }

      .cls-2 {
        letter-spacing: -.04em;
      }

      .cls-3 {
        clip-path: url(#clippath);
      }

      .cls-4 {
        letter-spacing: -.02em;
      }

      .cls-5, .cls-6, .cls-7 {
        fill: none;
      }

      .cls-5, .cls-8, .cls-9, .cls-10, .cls-11, .cls-12, .cls-13, .cls-14 {
        stroke-width: 0px;
      }

      .cls-15 {
        letter-spacing: -.02em;
      }

      .cls-16, .cls-17 {
        font-size: 41px;
      }

      .cls-16, .cls-17, .cls-18 {
        fill: #fff;
      }

      .cls-16, .cls-17, .cls-18, .cls-19 {
        isolation: isolate;
      }

      .cls-16, .cls-18 {
        font-family: Etna-Regular, Etna;
      }

      .cls-20 {
        letter-spacing: -.03em;
      }

      .cls-17 {
        font-family: Etna-Bold, Etna;
        font-weight: 700;
      }

      .cls-21 {
        letter-spacing: 0em;
      }

      .cls-22 {
        letter-spacing: -.05em;
      }

      .cls-23 {
        clip-path: url(#clippath-1);
      }

      .cls-24 {
        clip-path: url(#clippath-4);
      }

      .cls-25 {
        clip-path: url(#clippath-3);
      }

      .cls-26 {
        clip-path: url(#clippath-2);
      }

      .cls-27 {
        clip-path: url(#clippath-7);
      }

      .cls-28 {
        clip-path: url(#clippath-8);
      }

      .cls-29 {
        clip-path: url(#clippath-6);
      }

      .cls-30 {
        clip-path: url(#clippath-5);
      }

      .cls-31 {
        clip-path: url(#clippath-9);
      }

      .cls-6 {
        stroke: #d9d9d9;
        stroke-linejoin: round;
        stroke-width: 3.44px;
      }

      .cls-32 {
        clip-path: url(#clippath-20);
      }

      .cls-33 {
        clip-path: url(#clippath-21);
      }

      .cls-34 {
        clip-path: url(#clippath-24);
      }

      .cls-35 {
        clip-path: url(#clippath-23);
      }

      .cls-36 {
        clip-path: url(#clippath-22);
      }

      .cls-37 {
        clip-path: url(#clippath-25);
      }

      .cls-38 {
        clip-path: url(#clippath-27);
      }

      .cls-39 {
        clip-path: url(#clippath-28);
      }

      .cls-40 {
        clip-path: url(#clippath-26);
      }

      .cls-41 {
        clip-path: url(#clippath-29);
      }

      .cls-42 {
        clip-path: url(#clippath-34);
      }

      .cls-43 {
        clip-path: url(#clippath-35);
      }

      .cls-44 {
        clip-path: url(#clippath-36);
      }

      .cls-45 {
        clip-path: url(#clippath-37);
      }

      .cls-46 {
        clip-path: url(#clippath-39);
      }

      .cls-47 {
        clip-path: url(#clippath-33);
      }

      .cls-48 {
        clip-path: url(#clippath-32);
      }

      .cls-49 {
        clip-path: url(#clippath-30);
      }

      .cls-50 {
        clip-path: url(#clippath-38);
      }

      .cls-51 {
        clip-path: url(#clippath-31);
      }

      .cls-52 {
        clip-path: url(#clippath-14);
      }

      .cls-53 {
        clip-path: url(#clippath-13);
      }

      .cls-54 {
        clip-path: url(#clippath-12);
      }

      .cls-55 {
        clip-path: url(#clippath-15);
      }

      .cls-56 {
        clip-path: url(#clippath-17);
      }

      .cls-57 {
        clip-path: url(#clippath-16);
      }

      .cls-58 {
        clip-path: url(#clippath-19);
      }

      .cls-59 {
        clip-path: url(#clippath-11);
      }

      .cls-60 {
        clip-path: url(#clippath-18);
      }

      .cls-18 {
        font-size: 53px;
      }

      .cls-61 {
        letter-spacing: -.03em;
      }

      .cls-62 {
        letter-spacing: 0em;
      }

      .cls-63 {
        letter-spacing: 0em;
      }

      .cls-64 {
        letter-spacing: -.05em;
      }

      .cls-65 {
        letter-spacing: -.1em;
      }

      .cls-7 {
        opacity: .5;
        stroke: #fff;
        stroke-miterlimit: 10;
        stroke-width: 2px;
      }

      .cls-66 {
        letter-spacing: -.04em;
      }

      .cls-67 {
        letter-spacing: 0em;
      }

      .cls-68 {
        letter-spacing: -.01em;
      }

      .cls-69 {
        letter-spacing: 0em;
      }

      .cls-9 {
        fill: #264478;
      }

      .cls-10 {
        fill: #43ae46;
      }

      .cls-11 {
        fill: #4472c4;
      }

      .cls-12 {
        fill: #1b5e1f;
      }

      .cls-13 {
        fill: #1e5f30;
      }

      .cls-14 {
        fill: #a5d6a7;
      }

      .cls-70 {
        letter-spacing: -.01em;
      }
    </style>
    <clipPath id="clippath">
      <rect class="cls-5" width="2663" height="2026"/>
    </clipPath>
    <clipPath id="clippath-1">
      <rect class="cls-5" y="210" width="2663" height="1816"/>
    </clipPath>
    <clipPath id="clippath-2">
      <rect class="cls-5" y="210" width="2663" height="1816"/>
    </clipPath>
    <clipPath id="clippath-3">
      <rect class="cls-5" y="210" width="2663" height="1816"/>
    </clipPath>
    <clipPath id="clippath-4">
      <rect class="cls-5" y="210" width="2663" height="1816"/>
    </clipPath>
    <clipPath id="clippath-5">
      <rect class="cls-5" y="210" width="2663" height="1816"/>
    </clipPath>
    <clipPath id="clippath-6">
      <rect class="cls-5" y="210" width="2663" height="1816"/>
    </clipPath>
    <clipPath id="clippath-7">
      <rect class="cls-5" y="210" width="2663" height="1816"/>
    </clipPath>
    <clipPath id="clippath-8">
      <rect class="cls-5" y="210" width="2663" height="1816"/>
    </clipPath>
    <clipPath id="clippath-9">
      <rect class="cls-5" y="210" width="2663" height="1816"/>
    </clipPath>
    <clipPath id="clippath-11">
      <rect class="cls-5" y="210" width="2663" height="1816"/>
    </clipPath>
    <clipPath id="clippath-12">
      <rect class="cls-5" y="210" width="2663" height="1816"/>
    </clipPath>
    <clipPath id="clippath-13">
      <rect class="cls-5" y="210" width="2663" height="1816"/>
    </clipPath>
    <clipPath id="clippath-14">
      <rect class="cls-5" y="210" width="2663" height="1816"/>
    </clipPath>
    <clipPath id="clippath-15">
      <rect class="cls-5" y="210" width="2663" height="1816"/>
    </clipPath>
    <clipPath id="clippath-16">
      <rect class="cls-5" y="210" width="2663" height="1816"/>
    </clipPath>
    <clipPath id="clippath-17">
      <rect class="cls-5" y="210" width="2663" height="1816"/>
    </clipPath>
    <clipPath id="clippath-18">
      <rect class="cls-5" y="210" width="2663" height="1816"/>
    </clipPath>
    <clipPath id="clippath-19">
      <rect class="cls-5" y="210" width="2663" height="1816"/>
    </clipPath>
    <clipPath id="clippath-20">
      <rect class="cls-5" y="210" width="2663" height="1816"/>
    </clipPath>
    <clipPath id="clippath-21">
      <rect class="cls-5" y="210" width="2663" height="1816"/>
    </clipPath>
    <clipPath id="clippath-22">
      <rect class="cls-5" y="210" width="2663" height="1816"/>
    </clipPath>
    <clipPath id="clippath-23">
      <rect class="cls-5" y="210" width="2663" height="1816"/>
    </clipPath>
    <clipPath id="clippath-24">
      <rect class="cls-5" y="210" width="2663" height="1816"/>
    </clipPath>
    <clipPath id="clippath-25">
      <rect class="cls-5" y="210" width="2663" height="1816"/>
    </clipPath>
    <clipPath id="clippath-26">
      <rect class="cls-5" y="210" width="2663" height="1816"/>
    </clipPath>
    <clipPath id="clippath-27">
      <rect class="cls-5" y="210" width="2663" height="1816"/>
    </clipPath>
    <clipPath id="clippath-28">
      <rect class="cls-5" y="210" width="2663" height="1816"/>
    </clipPath>
    <clipPath id="clippath-29">
      <rect class="cls-5" y="210" width="2663" height="1816"/>
    </clipPath>
    <clipPath id="clippath-30">
      <rect class="cls-5" y="210" width="2663" height="1816"/>
    </clipPath>
    <clipPath id="clippath-31">
      <rect class="cls-5" y="210" width="2663" height="1816"/>
    </clipPath>
    <clipPath id="clippath-32">
      <rect class="cls-5" y="210" width="2663" height="1816"/>
    </clipPath>
    <clipPath id="clippath-33">
      <rect class="cls-5" y="210" width="2663" height="1816"/>
    </clipPath>
    <clipPath id="clippath-34">
      <rect class="cls-5" y="210" width="2663" height="1816"/>
    </clipPath>
    <clipPath id="clippath-35">
      <rect class="cls-5" y="210" width="2663" height="1816"/>
    </clipPath>
    <clipPath id="clippath-36">
      <rect class="cls-5" y="210" width="2663" height="1816"/>
    </clipPath>
    <clipPath id="clippath-37">
      <rect class="cls-5" y="210" width="2663" height="1816"/>
    </clipPath>
    <clipPath id="clippath-38">
      <rect class="cls-5" y="210" width="2663" height="1816"/>
    </clipPath>
    <clipPath id="clippath-39">
      <rect class="cls-5" y="210" width="2663" height="1816"/>
    </clipPath>
  </defs>
  <g class="cls-3">
    <g>
      <g class="cls-23">
        <rect class="cls-8" width="2663" height="2026"/>
      </g>
      <g class="cls-26">
        <path class="cls-11" d="m307.1,1632.4h49v5h-49v-5Zm123,0h50v5h-50v-5Zm124,0h49v5h-49v-5Zm124,1h49v4h-49v-4Zm123,0h50v4h-50v-4Zm124,0h49v4h-49v-4Zm124,0h49v4h-49v-4Zm123,0h50v4h-50v-4Zm124,0h49v4h-49v-4Zm124,0h49v4h-49v-4Zm123,0h50v4h-50v-4Zm124,0h49v4h-49v-4Zm124,0h49v4h-49v-4Zm123,0h50v4h-50v-4Zm124,0h49v4h-49v-4h0Zm124.1,0h49v4h-49v-4Zm123,0h50v4h-50v-4Zm124,0h49v4h-49v-4Z"/>
      </g>
      <g class="cls-25">
        <path class="cls-13" d="m307.1,1201.4h49v431h-49v-431Zm123-12h50v443h-50v-443Zm124-1h49v444h-49v-444Zm124,1h49v444h-49v-444Zm123-38h50v482h-50v-482Zm124-12h49v494h-49v-494Zm124-5h49v499h-49v-499Zm123-7h50v506h-50v-506Zm124,0h49v506h-49v-506Zm124-9h49v515h-49v-515Zm123-8h50v523h-50v-523Zm124,0h49v523h-49v-523Zm124,0h49v523h-49v-523Zm123-18h50v541h-50v-541Zm124-8h49v549h-49v-549h0Zm124.1-1h49v550h-49v-550Zm123,0h50v550h-50v-550Zm124,0h49v550h-49v-550Z"/>
      </g>
      <g class="cls-24">
        <path class="cls-13" d="m307.1,1200.4h49v1h-49v-1Zm123-12h50v1h-50v-1Zm124-1h49v1h-49v-1Zm124,1h49v1h-49v-1Zm123-38h50v1h-50v-1Zm124-12h49v1h-49v-1Zm124-5h49v1h-49v-1Zm123-7h50v1h-50v-1Zm124,0h49v1h-49v-1Zm124-9h49v1h-49v-1Zm123-8h50v1h-50v-1Zm124,0h49v1h-49v-1Zm124,0h49v1h-49v-1Zm123-18h50v1h-50v-1Zm124-8h49v1h-49v-1h0Zm124.1-1h49v1h-49v-1Zm123,0h50v1h-50v-1Zm124,0h49v1h-49v-1Z"/>
      </g>
      <g class="cls-30">
        <path class="cls-13" d="m307.1,1173.4h49v28h-49v-28Zm123-13h50v29h-50v-29Zm124,0h49v28h-49v-28Zm124,0h49v28h-49v-28Zm123-38h50v29h-50v-29Zm124-11h49v28h-49v-28Zm124-6h49v28h-49v-28Zm123-6h50v28h-50v-28Zm124-1h49v28h-49v-28Zm124-8h49v28h-49v-28Zm123-8h50v28h-50v-28Zm124,0h49v28h-49v-28Zm124,0h49v28h-49v-28Zm123-18h50v28h-50v-28Zm124-8h49v28h-49v-28h0Zm124.1-1h49v28h-49v-28Zm123-8h50v36h-50v-36Zm124,0h49v36h-49v-36Z"/>
      </g>
      <g class="cls-29">
        <path class="cls-13" d="m307.1,1167.4h49v6h-49v-6Zm123-12h50v5h-50v-5Zm124,0h49v5h-49v-5Zm124,1h49v4h-49v-4Zm123-38h50v4h-50v-4Zm124-12h49v5h-49v-5Zm124-5h49v4h-49v-4Zm123-7h50v5h-50v-5Zm124,0h49v4h-49v-4Zm124-8h49v4h-49v-4Zm123-9h50v5h-50v-5Zm124,1h49v4h-49v-4Zm124,0h49v4h-49v-4Zm123-19h50v5h-50v-5Zm124-7h49v4h-49v-4h0Zm124.1-1h49v4h-49v-4Zm123-9h50v5h-50v-5Zm124,1h49v4h-49v-4Z"/>
      </g>
      <g class="cls-27">
        <path class="cls-10" d="m307.1,708.4h49v459h-49v-459Zm123-24h50v471h-50v-471Zm124-1h49v472h-49v-472Zm124,0h49v473h-49v-473Zm123-75h50v510h-50v-510Zm124-24h49v522h-49v-522Zm124-11h49v528h-49v-528Zm123-13h50v534h-50v-534Zm124,0h49v534h-49v-534Zm124-17h49v543h-49v-543Zm123-17h50v551h-50v-551Zm124,0h49v552h-49v-552Zm124,1h49v551h-49v-551Zm123-37h50v569h-50V490.4Zm124-15h49v577h-49V475.4h0Zm124.1-3h49v579h-49V472.4Zm123-16h50v586h-50V456.4Zm124,0h49v587h-49V456.4Z"/>
      </g>
      <g class="cls-28">
        <path class="cls-9" d="m307.1,707.4h49v1h-49v-1Zm123-24h50v1h-50v-1Zm124-1h49v1h-49v-1Zm124,0h49v1h-49v-1Zm123-75h50v1h-50v-1Zm124-24h49v1h-49v-1Zm124-11h49v1h-49v-1Zm123-13h50v1h-50v-1Zm124,0h49v1h-49v-1Zm124-17h49v1h-49v-1Zm123-17h50v1h-50v-1Zm124,0h49v1h-49v-1Zm124,1h49v1h-49v-1Zm123-37h50v1h-50v-1Zm124-15h49v1h-49v-1h0Zm124.1-3h49v1h-49v-1Zm123-16h50v1h-50v-1Zm124,0h49v1h-49v-1Zm124,1181h49v1h-49v-1Z"/>
      </g>
      <g class="cls-31">
        <path class="cls-6" d="m269.5,1637.9h2350"/>
      </g>
      <g class="cls-59">
        <g class="cls-19">
          <text class="cls-16" transform="translate(210.38 1648.39)"><tspan x="0" y="0">0</tspan></text>
        </g>
      </g>
      <g class="cls-54">
        <g class="cls-19">
          <text class="cls-16" transform="translate(64.4 1493.39)"><tspan x="0" y="0">2</tspan><tspan class="cls-1" x="23.57" y="0">,</tspan><tspan x="32.76" y="0">00</tspan><tspan class="cls-1" x="84.42" y="0">0,</tspan><tspan x="117.79" y="0">000</tspan></text>
        </g>
      </g>
      <g class="cls-53">
        <g class="cls-19">
          <text class="cls-16" transform="translate(64.4 1339.39)"><tspan x="0" y="0">4</tspan><tspan class="cls-1" x="22.59" y="0">,</tspan><tspan x="31.77" y="0">00</tspan><tspan class="cls-2" x="83.43" y="0">0,</tspan><tspan x="116.81" y="0">000</tspan></text>
        </g>
      </g>
      <g class="cls-52">
        <g class="cls-19">
          <text class="cls-16" transform="translate(64.4 1185.39)"><tspan class="cls-4" x="0" y="0">6</tspan><tspan class="cls-1" x="23.53" y="0">,</tspan><tspan x="32.72" y="0">00</tspan><tspan class="cls-1" x="84.38" y="0">0,</tspan><tspan x="117.75" y="0">000</tspan></text>
        </g>
      </g>
      <g class="cls-55">
        <g class="cls-19">
          <text class="cls-16" transform="translate(64.4 1030.39)"><tspan class="cls-67" x="0" y="0">8</tspan><tspan class="cls-1" x="24.19" y="0">,</tspan><tspan x="33.37" y="0">00</tspan><tspan class="cls-2" x="85.03" y="0">0,</tspan><tspan x="118.41" y="0">000</tspan></text>
        </g>
      </g>
      <g class="cls-57">
        <g class="cls-19">
          <text class="cls-16" transform="translate(43.5 876.39)"><tspan class="cls-61" x="0" y="0">1</tspan><tspan class="cls-1" x="16.73" y="0">0,</tspan><tspan x="50.1" y="0">00</tspan><tspan class="cls-2" x="101.76" y="0">0,</tspan><tspan x="135.13" y="0">000</tspan></text>
        </g>
      </g>
      <g class="cls-56">
        <g class="cls-19">
          <text class="cls-16" transform="translate(43.5 722.39)"><tspan x="0" y="0">12</tspan><tspan class="cls-1" x="41.45" y="0">,</tspan><tspan x="50.63" y="0">00</tspan><tspan class="cls-1" x="102.29" y="0">0,</tspan><tspan x="135.67" y="0">000</tspan></text>
        </g>
      </g>
      <g class="cls-60">
        <g class="cls-19">
          <text class="cls-16" transform="translate(43.5 567.39)"><tspan class="cls-64" x="0" y="0">1</tspan><tspan x="15.83" y="0">4</tspan><tspan class="cls-2" x="38.42" y="0">,</tspan><tspan x="47.6" y="0">00</tspan><tspan class="cls-1" x="99.26" y="0">0,</tspan><tspan x="132.63" y="0">000</tspan></text>
        </g>
      </g>
      <g class="cls-58">
        <g class="cls-19">
          <text class="cls-16" transform="translate(43.5 413.39)"><tspan class="cls-61" x="0" y="0">1</tspan><tspan class="cls-15" x="16.73" y="0">6</tspan><tspan class="cls-1" x="40.26" y="0">,</tspan><tspan x="49.45" y="0">00</tspan><tspan class="cls-1" x="101.1" y="0">0,</tspan><tspan x="134.48" y="0">000</tspan></text>
        </g>
      </g>
      <g class="cls-32">
        <g class="cls-19">
          <text class="cls-16" transform="translate(289.56 1702.39)"><tspan x="0" y="0">2005</tspan></text>
        </g>
      </g>
      <g class="cls-33">
        <g class="cls-19">
          <text class="cls-16" transform="translate(413.24 1702.39)"><tspan x="0" y="0">2006</tspan></text>
        </g>
      </g>
      <g class="cls-36">
        <g class="cls-19">
          <text class="cls-16" transform="translate(536.91 1702.39)"><tspan x="0" y="0">20</tspan><tspan class="cls-67" x="49.4" y="0">0</tspan><tspan x="75.03" y="0">7</tspan></text>
        </g>
      </g>
      <g class="cls-35">
        <g class="cls-19">
          <text class="cls-16" transform="translate(660.59 1702.39)"><tspan x="0" y="0">2008</tspan></text>
        </g>
      </g>
      <g class="cls-34">
        <g class="cls-19">
          <text class="cls-16" transform="translate(784.26 1702.39)"><tspan x="0" y="0">2009</tspan></text>
        </g>
      </g>
      <g class="cls-37">
        <g class="cls-19">
          <text class="cls-16" transform="translate(907.93 1702.39)"><tspan x="0" y="0">2</tspan><tspan class="cls-69" x="23.57" y="0">0</tspan><tspan class="cls-61" x="48.99" y="0">1</tspan><tspan x="65.72" y="0">0</tspan></text>
        </g>
      </g>
      <g class="cls-40">
        <g class="cls-19">
          <text class="cls-16" transform="translate(1031.61 1702.39)"><tspan x="0" y="0">2</tspan><tspan class="cls-69" x="23.57" y="0">0</tspan><tspan x="48.99" y="0">11</tspan></text>
        </g>
      </g>
      <g class="cls-38">
        <g class="cls-19">
          <text class="cls-16" transform="translate(1155.28 1702.39)"><tspan x="0" y="0">2</tspan><tspan class="cls-69" x="23.57" y="0">0</tspan><tspan x="48.99" y="0">12</tspan></text>
        </g>
      </g>
      <g class="cls-39">
        <g class="cls-19">
          <text class="cls-16" transform="translate(1278.96 1702.39)"><tspan x="0" y="0">2</tspan><tspan class="cls-69" x="23.57" y="0">0</tspan><tspan class="cls-68" x="48.99" y="0">1</tspan><tspan x="66.26" y="0">3</tspan></text>
        </g>
      </g>
      <g class="cls-41">
        <g class="cls-19">
          <text class="cls-16" transform="translate(1402.63 1702.39)"><tspan x="0" y="0">2</tspan><tspan class="cls-69" x="23.57" y="0">0</tspan><tspan class="cls-64" x="48.99" y="0">1</tspan><tspan x="64.82" y="0">4</tspan></text>
        </g>
      </g>
      <g class="cls-49">
        <g class="cls-19">
          <text class="cls-16" transform="translate(1526.3 1702.39)"><tspan x="0" y="0">2</tspan><tspan class="cls-69" x="23.57" y="0">0</tspan><tspan class="cls-70" x="48.99" y="0">1</tspan><tspan x="66.34" y="0">5</tspan></text>
        </g>
      </g>
      <g class="cls-51">
        <g class="cls-19">
          <text class="cls-16" transform="translate(1649.98 1702.39)"><tspan x="0" y="0">2</tspan><tspan class="cls-69" x="23.57" y="0">0</tspan><tspan class="cls-61" x="48.99" y="0">1</tspan><tspan x="65.72" y="0">6</tspan></text>
        </g>
      </g>
      <g class="cls-48">
        <g class="cls-19">
          <text class="cls-16" transform="translate(1773.65 1702.39)"><tspan x="0" y="0">2</tspan><tspan class="cls-69" x="23.57" y="0">0</tspan><tspan class="cls-22" x="48.99" y="0">1</tspan><tspan class="cls-21" x="64.9" y="0">7</tspan></text>
        </g>
      </g>
      <g class="cls-47">
        <g class="cls-19">
          <text class="cls-16" transform="translate(1897.33 1702.39)"><tspan x="0" y="0">2</tspan><tspan class="cls-69" x="23.57" y="0">0</tspan><tspan class="cls-20" x="48.99" y="0">1</tspan><tspan x="65.64" y="0">8</tspan></text>
        </g>
      </g>
      <g class="cls-42">
        <g class="cls-19">
          <text class="cls-16" transform="translate(2021 1702.39)"><tspan x="0" y="0">2</tspan><tspan class="cls-69" x="23.57" y="0">0</tspan><tspan class="cls-20" x="48.99" y="0">1</tspan><tspan x="65.64" y="0">9</tspan></text>
        </g>
      </g>
      <g class="cls-43">
        <g class="cls-19">
          <text class="cls-16" transform="translate(2144.67 1702.39)"><tspan x="0" y="0">2</tspan><tspan class="cls-70" x="23.57" y="0">0</tspan><tspan x="48.87" y="0">20</tspan></text>
        </g>
      </g>
      <g class="cls-44">
        <g class="cls-19">
          <text class="cls-16" transform="translate(2268.35 1702.39)"><tspan x="0" y="0">2</tspan><tspan class="cls-70" x="23.57" y="0">0</tspan><tspan x="48.87" y="0">21</tspan></text>
        </g>
      </g>
      <g class="cls-45">
        <g class="cls-19">
          <text class="cls-16" transform="translate(2392.02 1702.39)"><tspan x="0" y="0">2</tspan><tspan class="cls-70" x="23.57" y="0">0</tspan><tspan x="48.87" y="0">22</tspan></text>
        </g>
      </g>
      <g class="cls-50">
        <g>
          <rect class="cls-12" x="1999.1" y="1892.1" width="23" height="23"/>
          <text class="cls-17" transform="translate(2031.46 1914.12)"><tspan class="cls-66" x="0" y="0">T</tspan><tspan x="25.46" y="0">otal M</tspan><tspan class="cls-66" x="141.08" y="0">T</tspan><tspan x="166.54" y="0">eCO2</tspan><tspan class="cls-62" x="269.28" y="0">/</tspan><tspan x="283.47" y="0">SqFt</tspan></text>
          <rect class="cls-14" x="1999.3" y="1815.1" width="23" height="22"/>
          <text class="cls-17" transform="translate(2030.37 1838.01)"><tspan x="0" y="0">Main Campus M</tspan><tspan class="cls-66" x="300.04" y="0">T</tspan><tspan x="325.5" y="0">eCO2</tspan><tspan class="cls-63" x="428.24" y="0">/</tspan><tspan class="cls-21" x="442.43" y="0">SqFt</tspan></text>
        </g>
      </g>
      <g class="cls-46">
        <text class="cls-18" transform="translate(1263.71 1815.09)"><tspan x="0" y="0">Fiscal </tspan><tspan class="cls-65" x="144" y="0">Y</tspan><tspan x="170.82" y="0">ear</tspan></text>
      </g>
    </g>
  </g>
  <line class="cls-7" x1="268.98" y1="1482.71" x2="2618.05" y2="1482.71"/>
  <line class="cls-7" x1="268.98" y1="1325.65" x2="2618.05" y2="1325.65"/>
  <line class="cls-7" x1="268.98" y1="1171.06" x2="2618.05" y2="1171.06"/>
  <line class="cls-7" x1="268.98" y1="1016.47" x2="2618.05" y2="1016.47"/>
  <line class="cls-7" x1="268.98" y1="861.89" x2="2618.05" y2="861.89"/>
  <line class="cls-7" x1="268.98" y1="708.73" x2="2618.05" y2="708.73"/>
  <line class="cls-7" x1="268.98" y1="555.58" x2="2618.05" y2="555.58"/>
  <line class="cls-7" x1="268.98" y1="400.99" x2="2618.05" y2="400.99"/>
</svg>